{
  "asset": {
    "version": "2.0",
    "generator": "chronos-generate-aaa-mass-model-pack"
  },
  "scene": 0,
  "scenes": [
    {
      "name": "prop_bulk_gen_0994_lod0",
      "nodes": [
        0
      ]
    }
  ],
  "nodes": [
    {
      "mesh": 0,
      "name": "prop_bulk_gen_0994_lod0"
    }
  ],
  "meshes": [
    {
      "name": "prop_bulk_gen_0994_lod0_mesh",
      "primitives": [
        {
          "attributes": {
            "POSITION": 1
          },
          "indices": 0,
          "material": 0,
          "mode": 4
        }
      ]
    }
  ],
  "materials": [
    {
      "name": "prop_bulk_gen_0994_lod0_mat",
      "pbrMetallicRoughness": {
        "baseColorFactor": [
          0.48,
          0.6,
          0.44,
          1
        ],
        "metallicFactor": 0.08,
        "roughnessFactor": 0.85
      }
    }
  ],
  "accessors": [
    {
      "bufferView": 0,
      "componentType": 5123,
      "count": 72,
      "type": "SCALAR",
      "max": [
        71
      ],
      "min": [
        0
      ]
    },
    {
      "bufferView": 1,
      "componentType": 5126,
      "count": 72,
      "type": "VEC3",
      "min": [
        0,
        0,
        0
      ],
      "max": [
        0.865,
        0.14575,
        0.07625000000000001
      ]
    }
  ],
  "bufferViews": [
    {
      "buffer": 0,
      "byteOffset": 0,
      "byteLength": 144,
      "target": 34963
    },
    {
      "buffer": 0,
      "byteOffset": 144,
      "byteLength": 864,
      "target": 34962
    }
  ],
  "buffers": [
    {
      "byteLength": 1008,
      "uri": "data:application/octet-stream;base64,"
    }
  ]
}
