{
  "asset": {
    "version": "2.0",
    "generator": "chronos-generate-aaa-mass-model-pack"
  },
  "scene": 0,
  "scenes": [
    {
      "name": "prop_bulk_gen_0208_lod0",
      "nodes": [
        0
      ]
    }
  ],
  "nodes": [
    {
      "mesh": 0,
      "name": "prop_bulk_gen_0208_lod0"
    }
  ],
  "meshes": [
    {
      "name": "prop_bulk_gen_0208_lod0_mesh",
      "primitives": [
        {
          "attributes": {
            "POSITION": 1
          },
          "indices": 0,
          "material": 0,
          "mode": 4
        }
      ]
    }
  ],
  "materials": [
    {
      "name": "prop_bulk_gen_0208_lod0_mat",
      "pbrMetallicRoughness": {
        "baseColorFactor": [
          0.86,
          0.32,
          0.3,
          1
        ],
        "metallicFactor": 0.08,
        "roughnessFactor": 0.85
      }
    }
  ],
  "accessors": [
    {
      "bufferView": 0,
      "componentType": 5123,
      "count": 96,
      "type": "SCALAR",
      "max": [
        95
      ],
      "min": [
        0
      ]
    },
    {
      "bufferView": 1,
      "componentType": 5126,
      "count": 96,
      "type": "VEC3",
      "min": [
        0,
        0,
        0
      ],
      "max": [
        0.665,
        0.148,
        0.068
      ]
    }
  ],
  "bufferViews": [
    {
      "buffer": 0,
      "byteOffset": 0,
      "byteLength": 192,
      "target": 34963
    },
    {
      "buffer": 0,
      "byteOffset": 192,
      "byteLength": 1152,
      "target": 34962
    }
  ],
  "buffers": [
    {
      "byteLength": 1344,
      "uri": "data:application/octet-stream;base64,"
    }
  ]
}
