{
  "asset": {
    "version": "2.0",
    "generator": "chronos-generate-aaa-mass-model-pack"
  },
  "scene": 0,
  "scenes": [
    {
      "name": "prop_bulk_gen_0820_lod1",
      "nodes": [
        0
      ]
    }
  ],
  "nodes": [
    {
      "mesh": 0,
      "name": "prop_bulk_gen_0820_lod1"
    }
  ],
  "meshes": [
    {
      "name": "prop_bulk_gen_0820_lod1_mesh",
      "primitives": [
        {
          "attributes": {
            "POSITION": 1
          },
          "indices": 0,
          "material": 0,
          "mode": 4
        }
      ]
    }
  ],
  "materials": [
    {
      "name": "prop_bulk_gen_0820_lod1_mat",
      "pbrMetallicRoughness": {
        "baseColorFactor": [
          0.5,
          0.6,
          0.54,
          1
        ],
        "metallicFactor": 0.08,
        "roughnessFactor": 0.85
      }
    }
  ],
  "accessors": [
    {
      "bufferView": 0,
      "componentType": 5123,
      "count": 36,
      "type": "SCALAR",
      "max": [
        35
      ],
      "min": [
        0
      ]
    },
    {
      "bufferView": 1,
      "componentType": 5126,
      "count": 36,
      "type": "VEC3",
      "min": [
        0,
        0,
        0
      ],
      "max": [
        0.82175,
        0.0686,
        0.083125
      ]
    }
  ],
  "bufferViews": [
    {
      "buffer": 0,
      "byteOffset": 0,
      "byteLength": 72,
      "target": 34963
    },
    {
      "buffer": 0,
      "byteOffset": 72,
      "byteLength": 432,
      "target": 34962
    }
  ],
  "buffers": [
    {
      "byteLength": 504,
      "uri": "data:application/octet-stream;base64,"
    }
  ]
}
