{
  "asset": {
    "version": "2.0",
    "generator": "chronos-generate-aaa-mass-model-pack"
  },
  "scene": 0,
  "scenes": [
    {
      "name": "prop_bulk_gen_0931_lod2",
      "nodes": [
        0
      ]
    }
  ],
  "nodes": [
    {
      "mesh": 0,
      "name": "prop_bulk_gen_0931_lod2"
    }
  ],
  "meshes": [
    {
      "name": "prop_bulk_gen_0931_lod2_mesh",
      "primitives": [
        {
          "attributes": {
            "POSITION": 1
          },
          "indices": 0,
          "material": 0,
          "mode": 4
        }
      ]
    }
  ],
  "materials": [
    {
      "name": "prop_bulk_gen_0931_lod2_mat",
      "pbrMetallicRoughness": {
        "baseColorFactor": [
          0.27,
          0.81,
          0.79,
          1
        ],
        "metallicFactor": 0.08,
        "roughnessFactor": 0.85
      }
    }
  ],
  "accessors": [
    {
      "bufferView": 0,
      "componentType": 5123,
      "count": 39,
      "type": "SCALAR",
      "max": [
        38
      ],
      "min": [
        0
      ]
    },
    {
      "bufferView": 1,
      "componentType": 5126,
      "count": 39,
      "type": "VEC3",
      "min": [
        0,
        0,
        0
      ],
      "max": [
        0.6985750000000001,
        0.091215,
        0.07487500000000001
      ]
    }
  ],
  "bufferViews": [
    {
      "buffer": 0,
      "byteOffset": 0,
      "byteLength": 78,
      "target": 34963
    },
    {
      "buffer": 0,
      "byteOffset": 80,
      "byteLength": 468,
      "target": 34962
    }
  ],
  "buffers": [
    {
      "byteLength": 548,
      "uri": "data:application/octet-stream;base64,"
    }
  ]
}
