{
  "asset": {
    "version": "2.0",
    "generator": "chronos-generate-aaa-mass-model-pack"
  },
  "scene": 0,
  "scenes": [
    {
      "name": "prop_bulk_gen_0900_lod2",
      "nodes": [
        0
      ]
    }
  ],
  "nodes": [
    {
      "mesh": 0,
      "name": "prop_bulk_gen_0900_lod2"
    }
  ],
  "meshes": [
    {
      "name": "prop_bulk_gen_0900_lod2_mesh",
      "primitives": [
        {
          "attributes": {
            "POSITION": 1
          },
          "indices": 0,
          "material": 0,
          "mode": 4
        }
      ]
    }
  ],
  "materials": [
    {
      "name": "prop_bulk_gen_0900_lod2_mat",
      "pbrMetallicRoughness": {
        "baseColorFactor": [
          0.7,
          0.72,
          0.5,
          1
        ],
        "metallicFactor": 0.08,
        "roughnessFactor": 0.85
      }
    }
  ],
  "accessors": [
    {
      "bufferView": 0,
      "componentType": 5123,
      "count": 51,
      "type": "SCALAR",
      "max": [
        50
      ],
      "min": [
        0
      ]
    },
    {
      "bufferView": 1,
      "componentType": 5126,
      "count": 51,
      "type": "VEC3",
      "min": [
        0,
        0,
        0
      ],
      "max": [
        0.8360750000000001,
        0.10493375,
        0.083125
      ]
    }
  ],
  "bufferViews": [
    {
      "buffer": 0,
      "byteOffset": 0,
      "byteLength": 102,
      "target": 34963
    },
    {
      "buffer": 0,
      "byteOffset": 104,
      "byteLength": 612,
      "target": 34962
    }
  ],
  "buffers": [
    {
      "byteLength": 716,
      "uri": "data:application/octet-stream;base64,"
    }
  ]
}
