{
  "asset": {
    "version": "2.0",
    "generator": "chronos-generate-aaa-mass-model-pack"
  },
  "scene": 0,
  "scenes": [
    {
      "name": "prop_bulk_gen_0253_lod1",
      "nodes": [
        0
      ]
    }
  ],
  "nodes": [
    {
      "mesh": 0,
      "name": "prop_bulk_gen_0253_lod1"
    }
  ],
  "meshes": [
    {
      "name": "prop_bulk_gen_0253_lod1_mesh",
      "primitives": [
        {
          "attributes": {
            "POSITION": 1
          },
          "indices": 0,
          "material": 0,
          "mode": 4
        }
      ]
    }
  ],
  "materials": [
    {
      "name": "prop_bulk_gen_0253_lod1_mat",
      "pbrMetallicRoughness": {
        "baseColorFactor": [
          0.71,
          0.75,
          0.57,
          1
        ],
        "metallicFactor": 0.08,
        "roughnessFactor": 0.85
      }
    }
  ],
  "accessors": [
    {
      "bufferView": 0,
      "componentType": 5123,
      "count": 69,
      "type": "SCALAR",
      "max": [
        68
      ],
      "min": [
        0
      ]
    },
    {
      "bufferView": 1,
      "componentType": 5126,
      "count": 69,
      "type": "VEC3",
      "min": [
        0,
        0,
        0
      ],
      "max": [
        0.653,
        0.0896,
        0.068
      ]
    }
  ],
  "bufferViews": [
    {
      "buffer": 0,
      "byteOffset": 0,
      "byteLength": 138,
      "target": 34963
    },
    {
      "buffer": 0,
      "byteOffset": 140,
      "byteLength": 828,
      "target": 34962
    }
  ],
  "buffers": [
    {
      "byteLength": 968,
      "uri": "data:application/octet-stream;base64,"
    }
  ]
}
