{
  "asset": {
    "version": "2.0",
    "generator": "chronos-generate-aaa-mass-model-pack"
  },
  "scene": 0,
  "scenes": [
    {
      "name": "prop_bulk_gen_0002_lod1",
      "nodes": [
        0
      ]
    }
  ],
  "nodes": [
    {
      "mesh": 0,
      "name": "prop_bulk_gen_0002_lod1"
    }
  ],
  "meshes": [
    {
      "name": "prop_bulk_gen_0002_lod1_mesh",
      "primitives": [
        {
          "attributes": {
            "POSITION": 1
          },
          "indices": 0,
          "material": 0,
          "mode": 4
        }
      ]
    }
  ],
  "materials": [
    {
      "name": "prop_bulk_gen_0002_lod1_mat",
      "pbrMetallicRoughness": {
        "baseColorFactor": [
          0.24,
          0.62,
          0.52,
          1
        ],
        "metallicFactor": 0.08,
        "roughnessFactor": 0.85
      }
    }
  ],
  "accessors": [
    {
      "bufferView": 0,
      "componentType": 5123,
      "count": 54,
      "type": "SCALAR",
      "max": [
        53
      ],
      "min": [
        0
      ]
    },
    {
      "bufferView": 1,
      "componentType": 5126,
      "count": 54,
      "type": "VEC3",
      "min": [
        0,
        0,
        0
      ],
      "max": [
        0.72175,
        0.1286,
        0.079
      ]
    }
  ],
  "bufferViews": [
    {
      "buffer": 0,
      "byteOffset": 0,
      "byteLength": 108,
      "target": 34963
    },
    {
      "buffer": 0,
      "byteOffset": 108,
      "byteLength": 648,
      "target": 34962
    }
  ],
  "buffers": [
    {
      "byteLength": 756,
      "uri": "data:application/octet-stream;base64,"
    }
  ]
}
