{
  "asset": {
    "version": "2.0",
    "generator": "chronos-generate-aaa-mass-model-pack"
  },
  "scene": 0,
  "scenes": [
    {
      "name": "prop_bulk_gen_0136_lod2",
      "nodes": [
        0
      ]
    }
  ],
  "nodes": [
    {
      "mesh": 0,
      "name": "prop_bulk_gen_0136_lod2"
    }
  ],
  "meshes": [
    {
      "name": "prop_bulk_gen_0136_lod2_mesh",
      "primitives": [
        {
          "attributes": {
            "POSITION": 1
          },
          "indices": 0,
          "material": 0,
          "mode": 4
        }
      ]
    }
  ],
  "materials": [
    {
      "name": "prop_bulk_gen_0136_lod2_mat",
      "pbrMetallicRoughness": {
        "baseColorFactor": [
          0.82,
          0.56,
          0.7,
          1
        ],
        "metallicFactor": 0.08,
        "roughnessFactor": 0.85
      }
    }
  ],
  "accessors": [
    {
      "bufferView": 0,
      "componentType": 5123,
      "count": 21,
      "type": "SCALAR",
      "max": [
        20
      ],
      "min": [
        0
      ]
    },
    {
      "bufferView": 1,
      "componentType": 5126,
      "count": 21,
      "type": "VEC3",
      "min": [
        0,
        0,
        0.006
      ],
      "max": [
        0.42357500000000003,
        0.053165,
        0.07487500000000001
      ]
    }
  ],
  "bufferViews": [
    {
      "buffer": 0,
      "byteOffset": 0,
      "byteLength": 42,
      "target": 34963
    },
    {
      "buffer": 0,
      "byteOffset": 44,
      "byteLength": 252,
      "target": 34962
    }
  ],
  "buffers": [
    {
      "byteLength": 296,
      "uri": "data:application/octet-stream;base64,"
    }
  ]
}
