{
  "asset": {
    "version": "2.0",
    "generator": "chronos-generate-placeholder-3d"
  },
  "scene": 0,
  "scenes": [
    {
      "name": "char_iron_vanguard_captain_lod2",
      "nodes": [
        0
      ]
    }
  ],
  "nodes": [
    {
      "mesh": 0,
      "name": "char_iron_vanguard_captain_lod2"
    }
  ],
  "meshes": [
    {
      "name": "char_iron_vanguard_captain_lod2_mesh",
      "primitives": [
        {
          "attributes": {
            "POSITION": 1
          },
          "indices": 0,
          "material": 0,
          "mode": 4
        }
      ]
    }
  ],
  "materials": [
    {
      "name": "char_iron_vanguard_captain_lod2_mat",
      "pbrMetallicRoughness": {
        "baseColorFactor": [
          0.35,
          0.38,
          0.52,
          1
        ],
        "metallicFactor": 0.05,
        "roughnessFactor": 0.9
      }
    }
  ],
  "accessors": [
    {
      "bufferView": 0,
      "componentType": 5123,
      "count": 18,
      "type": "SCALAR",
      "max": [
        17
      ],
      "min": [
        0
      ]
    },
    {
      "bufferView": 1,
      "componentType": 5126,
      "count": 18,
      "type": "VEC3",
      "min": [
        0,
        0,
        0
      ],
      "max": [
        0.81,
        0.054,
        0
      ]
    }
  ],
  "bufferViews": [
    {
      "buffer": 0,
      "byteOffset": 0,
      "byteLength": 36,
      "target": 34963
    },
    {
      "buffer": 0,
      "byteOffset": 36,
      "byteLength": 216,
      "target": 34962
    }
  ],
  "buffers": [
    {
      "byteLength": 252,
      "uri": "data:application/octet-stream;base64,"
    }
  ]
}
