{
  "asset": {
    "version": "2.0",
    "generator": "chronos-generate-placeholder-3d"
  },
  "scene": 0,
  "scenes": [
    {
      "name": "env_marsh_ruins_archway_lod1",
      "nodes": [
        0
      ]
    }
  ],
  "nodes": [
    {
      "mesh": 0,
      "name": "env_marsh_ruins_archway_lod1"
    }
  ],
  "meshes": [
    {
      "name": "env_marsh_ruins_archway_lod1_mesh",
      "primitives": [
        {
          "attributes": {
            "POSITION": 1
          },
          "indices": 0,
          "material": 0,
          "mode": 4
        }
      ]
    }
  ],
  "materials": [
    {
      "name": "env_marsh_ruins_archway_lod1_mat",
      "pbrMetallicRoughness": {
        "baseColorFactor": [
          0.44,
          0.46,
          0.4,
          1
        ],
        "metallicFactor": 0.05,
        "roughnessFactor": 0.9
      }
    }
  ],
  "accessors": [
    {
      "bufferView": 0,
      "componentType": 5123,
      "count": 27,
      "type": "SCALAR",
      "max": [
        26
      ],
      "min": [
        0
      ]
    },
    {
      "bufferView": 1,
      "componentType": 5126,
      "count": 27,
      "type": "VEC3",
      "min": [
        0,
        0,
        0
      ],
      "max": [
        0.8300000000000001,
        0.192,
        0
      ]
    }
  ],
  "bufferViews": [
    {
      "buffer": 0,
      "byteOffset": 0,
      "byteLength": 54,
      "target": 34963
    },
    {
      "buffer": 0,
      "byteOffset": 56,
      "byteLength": 324,
      "target": 34962
    }
  ],
  "buffers": [
    {
      "byteLength": 380,
      "uri": "data:application/octet-stream;base64,"
    }
  ]
}
