{
  "asset": {
    "version": "2.0",
    "generator": "chronos-generate-placeholder-3d"
  },
  "scene": 0,
  "scenes": [
    {
      "name": "env_marsh_ruins_archway_lod0",
      "nodes": [
        0
      ]
    }
  ],
  "nodes": [
    {
      "mesh": 0,
      "name": "env_marsh_ruins_archway_lod0"
    }
  ],
  "meshes": [
    {
      "name": "env_marsh_ruins_archway_lod0_mesh",
      "primitives": [
        {
          "attributes": {
            "POSITION": 1
          },
          "indices": 0,
          "material": 0,
          "mode": 4
        }
      ]
    }
  ],
  "materials": [
    {
      "name": "env_marsh_ruins_archway_lod0_mat",
      "pbrMetallicRoughness": {
        "baseColorFactor": [
          0.44,
          0.46,
          0.4,
          1
        ],
        "metallicFactor": 0.05,
        "roughnessFactor": 0.9
      }
    }
  ],
  "accessors": [
    {
      "bufferView": 0,
      "componentType": 5123,
      "count": 54,
      "type": "SCALAR",
      "max": [
        53
      ],
      "min": [
        0
      ]
    },
    {
      "bufferView": 1,
      "componentType": 5126,
      "count": 54,
      "type": "VEC3",
      "min": [
        0,
        0,
        0
      ],
      "max": [
        0.85,
        0.32999999999999996,
        0
      ]
    }
  ],
  "bufferViews": [
    {
      "buffer": 0,
      "byteOffset": 0,
      "byteLength": 108,
      "target": 34963
    },
    {
      "buffer": 0,
      "byteOffset": 108,
      "byteLength": 648,
      "target": 34962
    }
  ],
  "buffers": [
    {
      "byteLength": 756,
      "uri": "data:application/octet-stream;base64,"
    }
  ]
}
