{
  "asset": {
    "version": "2.0",
    "generator": "chronos-quality-3d"
  },
  "scene": 0,
  "scenes": [
    {
      "name": "building_tower_lod0",
      "nodes": [
        0
      ]
    }
  ],
  "nodes": [
    {
      "mesh": 0,
      "name": "building_tower_lod0"
    }
  ],
  "meshes": [
    {
      "name": "building_tower_lod0_mesh",
      "primitives": [
        {
          "attributes": {
            "POSITION": 1,
            "NORMAL": 2
          },
          "indices": 0,
          "material": 0,
          "mode": 4
        }
      ]
    }
  ],
  "materials": [
    {
      "name": "building_tower_lod0_mat",
      "pbrMetallicRoughness": {
        "baseColorFactor": [
          0.5,
          0.5,
          0.5,
          1
        ],
        "metallicFactor": 0.1,
        "roughnessFactor": 0.8
      }
    }
  ],
  "accessors": [
    {
      "bufferView": 0,
      "componentType": 5123,
      "count": 84,
      "type": "SCALAR",
      "max": [
        43
      ],
      "min": [
        0
      ]
    },
    {
      "bufferView": 1,
      "componentType": 5126,
      "count": 44,
      "type": "VEC3",
      "min": [
        -0.5599999999999999,
        -0.75,
        -0.5599999999999999
      ],
      "max": [
        0.5599999999999999,
        0.75,
        0.5599999999999999
      ]
    },
    {
      "bufferView": 2,
      "componentType": 5126,
      "count": 44,
      "type": "VEC3"
    }
  ],
  "bufferViews": [
    {
      "buffer": 0,
      "byteOffset": 0,
      "byteLength": 168,
      "target": 34963
    },
    {
      "buffer": 0,
      "byteOffset": 168,
      "byteLength": 528,
      "target": 34962
    },
    {
      "buffer": 0,
      "byteOffset": 696,
      "byteLength": 528,
      "target": 34962
    }
  ],
  "buffers": [
    {
      "byteLength": 1224,
      "uri": "data:application/octet-stream;base64,"
    }
  ]
}