{
  "asset": {
    "version": "2.0",
    "generator": "chronos-quality-3d"
  },
  "scene": 0,
  "scenes": [
    {
      "name": "campfire_lod1",
      "nodes": [
        0
      ]
    }
  ],
  "nodes": [
    {
      "mesh": 0,
      "name": "campfire_lod1"
    }
  ],
  "meshes": [
    {
      "name": "campfire_lod1_mesh",
      "primitives": [
        {
          "attributes": {
            "POSITION": 1,
            "NORMAL": 2
          },
          "indices": 0,
          "material": 0,
          "mode": 4
        }
      ]
    }
  ],
  "materials": [
    {
      "name": "campfire_lod1_mat",
      "pbrMetallicRoughness": {
        "baseColorFactor": [
          0.5,
          0.5,
          0.5,
          1
        ],
        "metallicFactor": 0.1,
        "roughnessFactor": 0.8
      }
    }
  ],
  "accessors": [
    {
      "bufferView": 0,
      "componentType": 5123,
      "count": 324,
      "type": "SCALAR",
      "max": [
        135
      ],
      "min": [
        0
      ]
    },
    {
      "bufferView": 1,
      "componentType": 5126,
      "count": 136,
      "type": "VEC3",
      "min": [
        -0.35030697079538337,
        -0.11247573881430864,
        -0.28
      ],
      "max": [
        0.35030697079538337,
        0.41247573881430866,
        0.28
      ]
    },
    {
      "bufferView": 2,
      "componentType": 5126,
      "count": 136,
      "type": "VEC3"
    }
  ],
  "bufferViews": [
    {
      "buffer": 0,
      "byteOffset": 0,
      "byteLength": 648,
      "target": 34963
    },
    {
      "buffer": 0,
      "byteOffset": 648,
      "byteLength": 1632,
      "target": 34962
    },
    {
      "buffer": 0,
      "byteOffset": 2280,
      "byteLength": 1632,
      "target": 34962
    }
  ],
  "buffers": [
    {
      "byteLength": 3912,
      "uri": "data:application/octet-stream;base64,"
    }
  ]
}