{
  "asset": {
    "version": "2.0",
    "generator": "chronos-quality-3d"
  },
  "scene": 0,
  "scenes": [
    {
      "name": "tree_pine_lod0",
      "nodes": [
        0
      ]
    }
  ],
  "nodes": [
    {
      "mesh": 0,
      "name": "tree_pine_lod0"
    }
  ],
  "meshes": [
    {
      "name": "tree_pine_lod0_mesh",
      "primitives": [
        {
          "attributes": {
            "POSITION": 1,
            "NORMAL": 2
          },
          "indices": 0,
          "material": 0,
          "mode": 4
        }
      ]
    }
  ],
  "materials": [
    {
      "name": "tree_pine_lod0_mat",
      "pbrMetallicRoughness": {
        "baseColorFactor": [
          0.5,
          0.5,
          0.5,
          1
        ],
        "metallicFactor": 0.1,
        "roughnessFactor": 0.8
      }
    }
  ],
  "accessors": [
    {
      "bufferView": 0,
      "componentType": 5123,
      "count": 264,
      "type": "SCALAR",
      "max": [
        101
      ],
      "min": [
        0
      ]
    },
    {
      "bufferView": 1,
      "componentType": 5126,
      "count": 102,
      "type": "VEC3",
      "min": [
        -0.7,
        -0.4,
        -0.7
      ],
      "max": [
        0.7,
        1.4,
        0.7
      ]
    },
    {
      "bufferView": 2,
      "componentType": 5126,
      "count": 102,
      "type": "VEC3"
    }
  ],
  "bufferViews": [
    {
      "buffer": 0,
      "byteOffset": 0,
      "byteLength": 528,
      "target": 34963
    },
    {
      "buffer": 0,
      "byteOffset": 528,
      "byteLength": 1224,
      "target": 34962
    },
    {
      "buffer": 0,
      "byteOffset": 1752,
      "byteLength": 1224,
      "target": 34962
    }
  ],
  "buffers": [
    {
      "byteLength": 2976,
      "uri": "data:application/octet-stream;base64,"
    }
  ]
}