{
  "asset": {
    "version": "2.0",
    "generator": "chronos-quality-3d"
  },
  "scene": 0,
  "scenes": [
    {
      "name": "tree_pine_lod1",
      "nodes": [
        0
      ]
    }
  ],
  "nodes": [
    {
      "mesh": 0,
      "name": "tree_pine_lod1"
    }
  ],
  "meshes": [
    {
      "name": "tree_pine_lod1_mesh",
      "primitives": [
        {
          "attributes": {
            "POSITION": 1,
            "NORMAL": 2
          },
          "indices": 0,
          "material": 0,
          "mode": 4
        }
      ]
    }
  ],
  "materials": [
    {
      "name": "tree_pine_lod1_mat",
      "pbrMetallicRoughness": {
        "baseColorFactor": [
          0.5,
          0.5,
          0.5,
          1
        ],
        "metallicFactor": 0.1,
        "roughnessFactor": 0.8
      }
    }
  ],
  "accessors": [
    {
      "bufferView": 0,
      "componentType": 5123,
      "count": 192,
      "type": "SCALAR",
      "max": [
        77
      ],
      "min": [
        0
      ]
    },
    {
      "bufferView": 1,
      "componentType": 5126,
      "count": 78,
      "type": "VEC3",
      "min": [
        -0.55,
        -0.4,
        -0.55
      ],
      "max": [
        0.55,
        1.1,
        0.55
      ]
    },
    {
      "bufferView": 2,
      "componentType": 5126,
      "count": 78,
      "type": "VEC3"
    }
  ],
  "bufferViews": [
    {
      "buffer": 0,
      "byteOffset": 0,
      "byteLength": 384,
      "target": 34963
    },
    {
      "buffer": 0,
      "byteOffset": 384,
      "byteLength": 936,
      "target": 34962
    },
    {
      "buffer": 0,
      "byteOffset": 1320,
      "byteLength": 936,
      "target": 34962
    }
  ],
  "buffers": [
    {
      "byteLength": 2256,
      "uri": "data:application/octet-stream;base64,"
    }
  ]
}