{
  "asset": {
    "version": "2.0",
    "generator": "chronos-quality-3d"
  },
  "scene": 0,
  "scenes": [
    {
      "name": "tree_oak_lod0",
      "nodes": [
        0
      ]
    }
  ],
  "nodes": [
    {
      "mesh": 0,
      "name": "tree_oak_lod0"
    }
  ],
  "meshes": [
    {
      "name": "tree_oak_lod0_mesh",
      "primitives": [
        {
          "attributes": {
            "POSITION": 1,
            "NORMAL": 2
          },
          "indices": 0,
          "material": 0,
          "mode": 4
        }
      ]
    }
  ],
  "materials": [
    {
      "name": "tree_oak_lod0_mat",
      "pbrMetallicRoughness": {
        "baseColorFactor": [
          0.5,
          0.5,
          0.5,
          1
        ],
        "metallicFactor": 0.1,
        "roughnessFactor": 0.8
      }
    }
  ],
  "accessors": [
    {
      "bufferView": 0,
      "componentType": 5123,
      "count": 1068,
      "type": "SCALAR",
      "max": [
        249
      ],
      "min": [
        0
      ]
    },
    {
      "bufferView": 1,
      "componentType": 5126,
      "count": 250,
      "type": "VEC3",
      "min": [
        -0.9,
        -0.9,
        -0.8559508646656383
      ],
      "max": [
        0.9,
        0.9,
        0.8559508646656383
      ]
    },
    {
      "bufferView": 2,
      "componentType": 5126,
      "count": 250,
      "type": "VEC3"
    }
  ],
  "bufferViews": [
    {
      "buffer": 0,
      "byteOffset": 0,
      "byteLength": 2136,
      "target": 34963
    },
    {
      "buffer": 0,
      "byteOffset": 2136,
      "byteLength": 3000,
      "target": 34962
    },
    {
      "buffer": 0,
      "byteOffset": 5136,
      "byteLength": 3000,
      "target": 34962
    }
  ],
  "buffers": [
    {
      "byteLength": 8136,
      "uri": "data:application/octet-stream;base64,"
    }
  ]
}