{
  "asset": {
    "version": "2.0",
    "generator": "chronos-quality-3d"
  },
  "scene": 0,
  "scenes": [
    {
      "name": "tree_oak_lod1",
      "nodes": [
        0
      ]
    }
  ],
  "nodes": [
    {
      "mesh": 0,
      "name": "tree_oak_lod1"
    }
  ],
  "meshes": [
    {
      "name": "tree_oak_lod1_mesh",
      "primitives": [
        {
          "attributes": {
            "POSITION": 1,
            "NORMAL": 2
          },
          "indices": 0,
          "material": 0,
          "mode": 4
        }
      ]
    }
  ],
  "materials": [
    {
      "name": "tree_oak_lod1_mat",
      "pbrMetallicRoughness": {
        "baseColorFactor": [
          0.5,
          0.5,
          0.5,
          1
        ],
        "metallicFactor": 0.1,
        "roughnessFactor": 0.8
      }
    }
  ],
  "accessors": [
    {
      "bufferView": 0,
      "componentType": 5123,
      "count": 948,
      "type": "SCALAR",
      "max": [
        227
      ],
      "min": [
        0
      ]
    },
    {
      "bufferView": 1,
      "componentType": 5126,
      "count": 228,
      "type": "VEC3",
      "min": [
        -0.7,
        -0.7,
        -0.6657395614066075
      ],
      "max": [
        0.7,
        0.7,
        0.6657395614066075
      ]
    },
    {
      "bufferView": 2,
      "componentType": 5126,
      "count": 228,
      "type": "VEC3"
    }
  ],
  "bufferViews": [
    {
      "buffer": 0,
      "byteOffset": 0,
      "byteLength": 1896,
      "target": 34963
    },
    {
      "buffer": 0,
      "byteOffset": 1896,
      "byteLength": 2736,
      "target": 34962
    },
    {
      "buffer": 0,
      "byteOffset": 4632,
      "byteLength": 2736,
      "target": 34962
    }
  ],
  "buffers": [
    {
      "byteLength": 7368,
      "uri": "data:application/octet-stream;base64,"
    }
  ]
}